<?xml version="1.0" standalone="no"?>
<!DOCTYPE svg PUBLIC "-//W3C//DTD SVG 20010904//EN"
 "http://www.w3.org/TR/2001/REC-SVG-20010904/DTD/svg10.dtd">
<svg version="1.0" xmlns="http://www.w3.org/2000/svg"
 width="920.000000pt" height="775.000000pt" viewBox="0 0 920.000000 775.000000"
 preserveAspectRatio="xMidYMid meet">

<g transform="translate(0.000000,775.000000) scale(0.100000,-0.100000)"
fill="#000000" stroke="none">
<path d="M4413 7321 c-302 -49 -569 -257 -693 -541 -18 -41 -34 -76 -35 -78
-2 -2 -37 19 -79 47 -80 52 -178 94 -274 117 -125 30 -226 10 -293 -59 -43
-45 -88 -134 -89 -178 0 -45 -30 -127 -56 -159 -36 -42 -75 -60 -131 -60 -63
0 -102 23 -154 90 -119 154 -424 422 -495 436 -42 8 -83 -14 -133 -73 -115
-135 -152 -305 -116 -533 23 -149 78 -394 103 -460 3 -8 -22 10 -57 40 -62 55
-75 65 -233 191 -119 95 -253 185 -407 274 -218 126 -270 134 -354 56 -72 -66
-75 -137 -16 -308 52 -148 107 -258 198 -396 39 -59 71 -109 71 -111 0 -2 -24
-7 -52 -11 -134 -16 -210 -56 -223 -115 -3 -14 2 -66 10 -116 35 -188 31 -226
-35 -330 -21 -34 -44 -80 -50 -104 -13 -48 -15 -176 -5 -233 7 -35 4 -40 -47
-92 -31 -30 -73 -87 -94 -127 -38 -71 -39 -75 -39 -178 0 -92 3 -109 23 -142
13 -20 32 -40 43 -43 20 -7 125 9 182 26 54 16 151 21 194 10 53 -14 98 -52
124 -102 17 -35 23 -39 58 -39 66 0 249 -77 358 -150 47 -32 50 -30 28 23 -16
40 -41 224 -31 234 4 4 14 -4 23 -18 36 -52 162 -175 237 -231 134 -100 323
-181 491 -209 103 -17 295 -15 398 5 145 28 301 92 425 174 157 103 315 268
327 342 8 46 -14 102 -48 125 -27 17 -291 125 -307 125 -5 0 -70 25 -142 55
-242 99 -650 266 -838 342 -260 106 -241 90 -176 146 273 236 722 407 1069
407 l98 0 -27 35 c-23 31 -109 104 -198 170 l-27 20 17 43 c17 42 17 46 -9
155 -15 66 -23 124 -20 142 13 65 158 158 298 190 141 33 267 15 336 -47 87
-78 90 -145 19 -361 -28 -83 -71 -189 -97 -236 -69 -126 -93 -175 -93 -188 0
-6 16 -30 36 -54 42 -50 64 -100 64 -144 l0 -32 93 5 c497 26 964 -265 1107
-689 20 -57 22 -86 23 -264 l0 -200 -31 -80 c-18 -44 -49 -109 -70 -145 l-38
-65 -79 -13 c-44 -7 -118 -11 -165 -9 -107 4 -168 30 -300 129 -153 115 -157
118 -225 149 -95 45 -158 59 -268 59 -109 0 -149 -14 -201 -69 -68 -72 -35
-209 77 -323 92 -93 270 -178 373 -178 47 0 255 33 339 54 33 8 110 20 172 26
191 18 276 -6 382 -109 80 -78 111 -134 111 -200 0 -70 -17 -106 -111 -246
-69 -103 -129 -204 -129 -219 0 -4 62 -5 137 -4 l137 3 18 115 c31 202 17 342
-44 464 -66 131 -85 234 -54 295 20 37 79 89 114 98 15 5 63 8 107 7 95 0 200
-29 291 -80 67 -37 84 -41 84 -19 0 13 51 76 159 195 28 32 40 54 40 75 1 34
-14 104 -23 113 -8 7 -37 -23 -175 -180 -56 -64 -111 -120 -122 -123 -39 -13
-115 60 -191 181 -52 84 -69 147 -46 170 14 14 120 33 401 70 l128 17 13 32
c17 41 57 68 125 89 104 31 204 13 258 -45 12 -13 42 -65 66 -115 42 -84 50
-94 111 -133 36 -24 73 -41 82 -39 10 1 28 22 40 46 l23 43 -77 50 c-99 65
-112 77 -112 105 0 13 8 27 18 32 9 5 87 19 172 31 85 12 203 28 261 37 111
15 134 13 149 -15 18 -34 -6 -150 -56 -266 l-25 -61 36 -64 c56 -99 78 -123
139 -154 51 -26 63 -28 118 -22 112 13 242 76 315 154 l35 37 -58 27 c-74 34
-193 74 -261 89 -29 6 -53 14 -53 19 0 5 7 42 16 82 31 138 17 345 -31 463
-119 295 -375 505 -718 587 -78 19 -120 22 -272 22 -168 -1 -188 -3 -297 -32
-253 -66 -477 -209 -629 -401 l-35 -44 -71 90 c-79 99 -169 187 -271 263 -79
61 -118 114 -129 178 -4 26 -8 110 -8 187 0 133 1 143 28 193 17 35 27 69 27
97 l0 44 -67 21 c-38 11 -88 31 -113 43 -69 34 -66 52 34 184 155 208 186 243
211 243 31 0 55 -35 55 -80 0 -19 3 -52 7 -73 l6 -38 56 2 c32 1 71 -5 91 -13
65 -28 162 -151 260 -333 102 -188 200 -334 268 -398 l29 -28 7 58 c12 99 55
244 103 343 36 74 60 109 112 160 36 36 89 77 116 92 127 67 320 87 464 47
128 -35 212 -88 428 -267 118 -98 264 -199 299 -208 56 -14 144 51 168 124 9
29 17 102 20 189 3 78 8 153 11 166 6 22 -2 26 -115 71 -134 54 -132 50 -85
131 35 62 66 85 124 94 28 4 60 16 70 25 19 17 20 17 37 -9 12 -18 18 -55 22
-120 l5 -95 41 7 c52 9 83 9 124 -1 l32 -8 0 75 c0 242 -163 521 -413 708 -80
59 -126 76 -172 65 -37 -9 -53 -33 -95 -137 -61 -154 -131 -322 -147 -357 -24
-50 -38 -27 -68 106 -52 231 -78 292 -127 292 -12 0 -48 -29 -88 -71 -57 -60
-72 -70 -96 -67 -38 4 -70 67 -84 168 -32 213 -66 298 -139 347 -69 47 -175
20 -211 -52 -9 -20 -17 -84 -21 -190 -5 -88 -10 -177 -14 -197 -7 -50 -47
-139 -72 -161 -20 -17 -20 -17 -33 30 -57 223 -128 351 -267 484 -116 113
-251 189 -403 230 -84 23 -290 33 -377 20z m306 -197 c40 -8 103 -29 140 -47
97 -47 96 -51 -46 -237 -64 -85 -121 -156 -125 -158 -4 -2 -23 -14 -43 -28
-20 -13 -40 -24 -45 -24 -14 0 -27 61 -49 235 -11 88 -23 181 -27 206 -6 40
-4 48 16 62 24 16 57 15 179 -9z m-331 -22 c13 -13 23 -48 31 -113 7 -52 21
-150 31 -219 14 -101 15 -129 5 -145 -24 -39 -50 -30 -172 62 -196 148 -241
185 -248 201 -17 44 115 148 265 209 68 27 66 27 88 5z m737 -229 c66 -83 135
-220 135 -269 0 -34 -24 -46 -122 -60 -112 -17 -151 -7 -257 63 l-68 45 106
139 c128 168 135 171 206 82z m-1122 -115 c18 -13 101 -76 185 -141 220 -171
218 -175 -127 -217 -46 -5 -85 -9 -86 -8 -1 2 -14 25 -29 52 -16 27 -44 66
-63 87 -31 34 -34 43 -28 75 7 39 48 139 66 161 17 19 47 16 82 -9z m2753
-106 c30 -21 30 -26 0 -40 -41 -18 -98 -74 -158 -155 -32 -43 -58 -76 -58 -74
0 3 16 43 36 89 20 45 45 107 56 135 10 29 27 57 36 63 21 12 57 5 88 -18z
m-2408 -344 c25 -25 2 -88 -48 -138 -3 -3 -41 -52 -84 -110 -137 -182 -146
-187 -210 -121 -43 44 -44 62 -12 171 9 30 16 80 16 111 0 63 6 69 68 70 20 0
73 6 117 13 107 18 139 18 153 4z m-2793 -1105 c102 -101 185 -183 183 -183
-2 0 -43 16 -91 35 -48 19 -97 35 -110 35 -35 0 -90 -40 -106 -78 -8 -17 -18
-32 -22 -32 -12 0 -159 72 -159 78 0 3 7 14 17 24 12 14 17 44 21 126 3 92 7
112 29 145 13 21 30 37 37 35 8 -2 98 -85 201 -185z m4495 -298 c117 -31 170
-59 170 -89 0 -12 -8 -32 -17 -43 -276 -317 -321 -363 -353 -363 -15 0 -33 6
-39 13 -11 14 -30 130 -57 352 l-15 130 23 18 c20 16 33 18 113 12 49 -4 128
-17 175 -30z m-453 -17 c10 -13 26 -111 58 -352 15 -111 15 -120 -1 -137 -33
-36 -63 -24 -260 106 -104 69 -192 125 -195 125 -14 0 -39 50 -33 65 15 37
219 160 317 191 54 16 102 17 114 2z m-3681 -84 c115 -47 226 -92 246 -101 84
-34 56 -73 -98 -137 -66 -26 -161 -66 -212 -89 -112 -48 -131 -44 -163 30 -39
90 -62 300 -38 344 6 11 20 24 32 29 12 5 22 9 23 9 0 1 94 -38 210 -85z
m4478 -83 c72 -45 184 -214 201 -303 10 -54 -12 -63 -200 -88 -88 -11 -184
-25 -214 -30 -75 -14 -165 -12 -179 2 -7 7 -12 19 -12 26 0 13 57 91 85 117 6
6 62 67 124 138 99 111 145 157 160 157 2 0 18 -9 35 -19z m-1124 -281 c256
-165 266 -174 237 -212 -14 -18 -62 -27 -380 -69 -121 -16 -173 -20 -185 -12
-29 17 -27 114 2 207 46 144 99 216 147 198 9 -4 90 -54 179 -112z m-2953 38
c7 -17 4 -36 -12 -78 -102 -254 -147 -357 -162 -367 -9 -7 -29 -13 -43 -13
-35 0 -130 70 -207 154 -94 100 -86 134 44 187 32 12 119 49 193 81 74 32 144
58 156 58 12 0 25 -9 31 -22z m488 -36 c275 -111 402 -166 413 -179 28 -37 15
-75 -45 -131 -63 -59 -145 -115 -210 -144 -74 -33 -102 -3 -168 172 -7 19 -34
84 -59 145 -49 117 -53 134 -33 154 14 14 32 11 102 -17z m-255 -68 c14 -28
31 -66 39 -85 14 -36 38 -93 95 -228 42 -98 44 -121 15 -147 -27 -25 -169 -32
-287 -14 -68 10 -86 16 -102 37 -11 14 -20 30 -20 35 0 21 165 424 183 446 21
26 51 9 77 -44z"/>
<path d="M8362 6224 c-169 -45 -411 -197 -631 -394 l-103 -93 42 -20 c59 -28
92 -85 141 -240 34 -109 46 -134 79 -167 45 -45 104 -65 168 -56 69 9 99 34
144 116 23 41 78 134 122 205 142 233 195 372 196 513 0 87 -17 125 -61 141
-38 13 -31 13 -97 -5z"/>
</g>
</svg>
